<?xml version="1.0" encoding="UTF-8" standalone="no"?>
<!DOCTYPE svg PUBLIC "-//W3C//DTD SVG 1.1//EN" "http://www.w3.org/Graphics/SVG/1.1/DTD/svg11.dtd">
<svg width="100%" height="100%" viewBox="0 0 2776 834" version="1.1" xmlns="http://www.w3.org/2000/svg" xmlns:xlink="http://www.w3.org/1999/xlink" xml:space="preserve" xmlns:serif="http://www.serif.com/" style="fill-rule:evenodd;clip-rule:evenodd;stroke-linejoin:round;stroke-miterlimit:2;">
    <g transform="matrix(1,0,0,1,-358.982,-823.525)">
        <path d="M776.139,1656.81L776.139,1635.4C763.477,1634.19 753.581,1623.53 753.581,1610.55C753.581,1597.58 763.477,1586.91 776.139,1585.71L776.139,1564.3C751.672,1565.55 732.218,1585.78 732.218,1610.55C732.218,1635.33 751.672,1655.55 776.139,1656.81ZM869.296,1636.23C874.184,1636.84 877.967,1641 877.967,1646.05C877.967,1651.51 873.533,1655.94 868.063,1655.94C862.6,1655.94 858.167,1651.51 858.167,1646.05C858.167,1640.99 861.957,1636.83 866.846,1636.23L866.846,1573.61L869.296,1573.61L869.296,1636.23ZM889.875,1631.43C893.934,1631.83 897.108,1635.27 897.108,1639.44C897.108,1643.88 893.504,1647.51 889.067,1647.51C884.612,1647.51 881,1643.88 881,1639.44C881,1635.56 883.754,1632.32 887.417,1631.55L887.417,1578.84L889.875,1578.84L889.875,1631.43ZM847.717,1631.48C851.589,1632.07 854.559,1635.41 854.559,1639.44C854.559,1643.88 850.947,1647.51 846.497,1647.51C842.051,1647.51 838.438,1643.88 838.438,1639.44C838.438,1635.42 841.403,1632.07 845.267,1631.48L845.267,1578.84L847.717,1578.84L847.717,1631.48ZM941.887,1589.62C938.02,1589.03 935.053,1585.69 935.053,1581.65C935.053,1577.2 938.661,1573.61 943.107,1573.61C947.553,1573.61 951.161,1577.2 951.161,1581.65C951.161,1585.69 948.2,1589.02 944.337,1589.62L944.337,1642.28L941.887,1642.28L941.887,1589.62ZM791.217,1589.62C787.349,1589.03 784.39,1585.69 784.39,1581.65C784.39,1577.2 787.994,1573.61 792.444,1573.61C796.89,1573.61 800.502,1577.2 800.502,1581.65C800.502,1585.69 797.538,1589.02 793.675,1589.62L793.675,1642.28L791.217,1642.28L791.217,1589.62ZM833.083,1623.37C835.194,1623.92 836.748,1625.85 836.748,1628.12C836.748,1630.83 834.56,1633.02 831.852,1633.02C829.148,1633.02 826.952,1630.83 826.952,1628.12C826.952,1625.84 828.516,1623.91 830.629,1623.37L830.629,1592.97L833.083,1592.97L833.083,1623.37ZM904.929,1623.37C907.036,1623.92 908.598,1625.84 908.598,1628.12C908.598,1630.83 906.402,1633.02 903.707,1633.02C900.998,1633.02 898.798,1630.83 898.798,1628.12C898.798,1625.84 900.364,1623.92 902.479,1623.37L902.479,1592.97L904.929,1592.97L904.929,1623.37ZM808.187,1597.72C806.077,1597.18 804.512,1595.27 804.512,1592.97C804.512,1590.27 806.712,1588.08 809.412,1588.08C812.116,1588.08 814.312,1590.27 814.312,1592.97C814.312,1595.27 812.749,1597.18 810.637,1597.72L810.637,1628.12L808.187,1628.12L808.187,1597.72ZM924.762,1597.68C922.729,1597.08 921.247,1595.21 921.247,1592.97C921.247,1590.27 923.435,1588.08 926.143,1588.08C928.847,1588.08 931.043,1590.27 931.043,1592.97C931.043,1595.32 929.405,1597.27 927.217,1597.76L927.217,1628.12L924.762,1628.12L924.762,1597.68ZM821.167,1615.03C823.638,1615.03 825.646,1613.03 825.646,1610.55C825.646,1608.08 823.638,1606.06 821.167,1606.06C818.688,1606.06 816.68,1608.08 816.68,1610.55C816.68,1613.03 818.688,1615.03 821.167,1615.03Z" style="fill:rgb(244,117,32);"/>
    </g>
    <g transform="matrix(1,0,0,1,-358.982,-823.525)">
        <path d="M959.794,1564.3L959.794,1585.71C972.457,1586.91 982.365,1597.58 982.365,1610.55C982.365,1623.52 972.457,1634.19 959.794,1635.39L959.794,1656.81C984.257,1655.55 1003.72,1635.32 1003.72,1610.55C1003.72,1585.78 984.257,1565.55 959.794,1564.3ZM538.005,1617.7C538.005,1626.2 536.946,1636.68 528.196,1645.7C519.696,1654.45 509.896,1655.78 500.609,1655.78C491.33,1655.78 481.513,1654.45 473.021,1645.7C464.271,1636.68 463.213,1626.2 463.213,1617.7L463.213,1565.33L483.63,1565.33L483.63,1617.18C483.63,1621.03 483.905,1627.53 488.28,1632.03C491.855,1635.88 496.759,1636.68 500.609,1636.68C504.45,1636.68 509.355,1635.88 512.934,1632.03C517.313,1627.53 517.58,1621.03 517.58,1617.18L517.58,1565.33L538.005,1565.33L538.005,1617.7ZM424.764,1566.33L424.764,1623.35L376.756,1566.33L358.985,1566.33L358.985,1654.78L379.414,1654.78L379.414,1597.49L427.418,1654.78L445.189,1654.78L445.189,1566.33L424.764,1566.33ZM1015.37,1566.33L1015.37,1654.78L1065.36,1654.78L1065.36,1637.54L1035.79,1637.54L1035.79,1617.92L1063.91,1617.92L1063.91,1600.67L1035.79,1600.67L1035.79,1583.57L1065.36,1583.57L1065.36,1566.33L1015.37,1566.33ZM588.391,1583.57L588.391,1654.77L567.975,1654.77L567.975,1583.57L548.741,1583.57L548.741,1566.33L607.625,1566.33L607.625,1583.57L588.391,1583.57ZM649.394,1566.33C660.673,1566.33 667.694,1570.04 671.94,1574.01C675.657,1577.59 679.64,1583.97 679.64,1593.78C679.64,1599.34 678.444,1606.24 672.732,1611.81C669.686,1614.74 665.315,1617.38 660.403,1618.57L687.586,1654.77L662.657,1654.77L638.786,1619.89L638.786,1654.77L618.369,1654.77L618.369,1566.33L649.394,1566.33ZM698.163,1566.33L718.588,1566.33L718.588,1654.77L698.163,1654.77L698.163,1566.33ZM792.444,1647.51C796.89,1647.51 800.502,1643.88 800.502,1639.44C800.502,1635 796.89,1631.38 792.444,1631.38C787.994,1631.38 784.39,1635 784.39,1639.44C784.39,1643.88 787.994,1647.51 792.444,1647.51ZM943.107,1647.51C938.661,1647.51 935.053,1643.88 935.053,1639.44C935.053,1635 938.661,1631.38 943.107,1631.38C947.553,1631.38 951.161,1635 951.161,1639.44C951.161,1643.88 947.553,1647.51 943.107,1647.51ZM809.412,1633.02C812.116,1633.02 814.312,1630.83 814.312,1628.12C814.312,1625.42 812.116,1623.21 809.412,1623.21C806.712,1623.21 804.512,1625.42 804.512,1628.12C804.512,1630.83 806.712,1633.02 809.412,1633.02ZM926.143,1633.02C923.435,1633.02 921.247,1630.83 921.247,1628.12C921.247,1625.42 923.435,1623.21 926.143,1623.21C928.847,1623.21 931.043,1625.42 931.043,1628.12C931.043,1630.83 928.847,1633.02 926.143,1633.02ZM914.392,1615.03C911.913,1615.03 909.909,1613.03 909.909,1610.55C909.909,1608.08 911.913,1606.06 914.392,1606.06C916.867,1606.06 918.871,1608.08 918.871,1610.55C918.871,1613.03 916.867,1615.03 914.392,1615.03ZM638.786,1606.51L643.432,1606.51C647.14,1606.51 652.182,1606.11 655.628,1602.66C657.086,1601.2 658.94,1598.42 658.94,1594.04C658.94,1589 656.561,1586.34 654.832,1585.02C651.515,1582.51 646.211,1582.24 643.561,1582.24L638.786,1582.24L638.786,1606.51ZM903.707,1597.87C900.998,1597.87 898.798,1595.69 898.798,1592.97C898.798,1590.27 900.998,1588.08 903.707,1588.08C906.402,1588.08 908.598,1590.27 908.598,1592.97C908.598,1595.69 906.402,1597.87 903.707,1597.87ZM831.852,1597.87C834.56,1597.87 836.748,1595.69 836.748,1592.97C836.748,1590.27 834.56,1588.08 831.852,1588.08C829.148,1588.08 826.952,1590.27 826.952,1592.97C826.952,1595.69 829.148,1597.87 831.852,1597.87ZM846.497,1589.71C850.947,1589.71 854.559,1586.11 854.559,1581.65C854.559,1577.2 850.947,1573.61 846.497,1573.61C842.051,1573.61 838.438,1577.2 838.438,1581.65C838.438,1586.11 842.051,1589.71 846.497,1589.71ZM889.067,1589.71C884.612,1589.71 881,1586.11 881,1581.65C881,1577.2 884.612,1573.61 889.067,1573.61C893.504,1573.61 897.108,1577.2 897.108,1581.65C897.108,1586.11 893.504,1589.71 889.067,1589.71ZM868.063,1584.95C862.6,1584.95 858.167,1580.52 858.167,1575.05C858.167,1569.59 862.6,1565.16 868.063,1565.16C873.533,1565.16 877.967,1569.59 877.967,1575.05C877.967,1580.52 873.533,1584.95 868.063,1584.95ZM727.124,902.654C741.399,902.654 753.645,907.762 763.849,917.958C773.753,928.162 778.712,940.408 778.712,954.683C778.712,968.97 773.607,981.062 763.412,990.97C753.499,1001.18 741.399,1006.27 727.124,1006.27L726.687,1006.27L462.607,1005.4L462.607,1164.11L653.224,1164.11C667.503,1164.11 679.753,1169.07 689.957,1178.97C700.153,1189.18 705.266,1201.42 705.266,1215.7C705.266,1229.99 700.153,1242.23 689.957,1252.43C679.753,1262.34 667.503,1267.3 653.224,1267.3L462.607,1267.3L462.607,1478.03C462.607,1492.32 457.503,1504.42 447.299,1514.33C437.103,1524.53 424.853,1529.63 410.578,1529.63C396.291,1529.63 384.195,1524.53 374.282,1514.33C364.078,1504.42 358.982,1492.32 358.982,1478.03L358.982,953.808C358.982,939.241 364.078,926.999 374.282,917.083C384.195,906.887 396.291,901.779 410.578,901.779L411.012,901.779L727.124,902.654ZM1509.44,901.779L1509.44,995.129L1426.37,995.129C1417.56,1001.65 1407.47,1004.97 1396.05,1004.97L1266.37,1004.97L1266.37,1131.4L1266.52,1131.4L1266.52,1478.03C1266.52,1492.32 1261.43,1504.55 1251.22,1514.77C1241.31,1524.67 1229.21,1529.63 1214.93,1529.63L1214.61,1529.63C1200.32,1529.63 1188.23,1524.67 1178.32,1514.77C1168.12,1504.55 1163.02,1492.32 1163.02,1478.03L1163.02,1131.4L1163.17,1131.4L1163.17,1004.97L1033.49,1004.97C1019.21,1004.97 1006.96,999.866 996.761,989.658C986.849,979.754 981.903,967.658 981.903,953.37C981.903,939.095 986.849,926.999 996.761,917.083C1006.96,906.887 1019.21,901.779 1033.49,901.779L1509.44,901.779ZM880.298,1529.63C866.023,1529.63 853.923,1524.53 844.019,1514.33C833.806,1504.41 828.71,1492.32 828.71,1478.03L828.71,956.439C828.71,942.156 833.806,930.056 844.019,920.148C853.923,909.939 866.023,904.839 880.298,904.839C894.581,904.839 906.681,909.939 916.594,920.148C926.79,930.056 931.902,942.156 931.902,956.439L931.902,1478.03C931.902,1492.32 926.79,1504.41 916.594,1514.33C906.681,1524.53 894.581,1529.63 880.298,1529.63ZM1295.64,864.122C1295.63,864.133 1295.61,864.149 1295.58,864.171C1295.56,864.192 1295.53,864.209 1295.49,864.23C1295.44,864.267 1295.38,864.296 1295.32,864.317C1295.29,864.334 1295.25,864.351 1295.21,864.371C1295.15,864.392 1295.09,864.409 1295.01,864.43C1294.95,864.451 1294.92,864.459 1294.9,864.459C1294.78,864.48 1294.68,864.488 1294.59,864.488C1294.47,864.488 1294.36,864.48 1294.24,864.459L1294.13,864.43C1294.04,864.392 1293.96,864.363 1293.9,864.342C1293.88,864.321 1293.84,864.296 1293.79,864.259C1293.71,864.221 1293.64,864.18 1293.59,864.146C1293.57,864.126 1293.53,864.096 1293.47,864.059L1293.24,863.83L1267.18,830.251L1267.18,862.776C1267.18,863.255 1267.01,863.651 1266.67,863.976C1266.35,864.317 1265.95,864.488 1265.47,864.488C1265,864.488 1264.6,864.317 1264.28,863.976C1263.94,863.651 1263.77,863.255 1263.77,862.776L1263.77,825.263C1263.77,824.446 1264.14,823.905 1264.91,823.642C1265.68,823.376 1266.32,823.563 1266.82,824.213L1292.9,857.792L1292.9,825.263C1292.9,824.788 1293.07,824.392 1293.39,824.067C1293.73,823.726 1294.13,823.555 1294.59,823.555C1295.06,823.555 1295.47,823.726 1295.81,824.067C1296.13,824.392 1296.29,824.788 1296.29,825.263L1296.29,862.892C1296.29,862.946 1296.29,863.005 1296.27,863.063C1296.27,863.101 1296.26,863.146 1296.24,863.205C1296.21,863.28 1296.2,863.338 1296.18,863.376C1296.16,863.413 1296.14,863.459 1296.12,863.517C1296.1,863.576 1296.07,863.626 1296.04,863.659C1296.02,863.696 1295.99,863.746 1295.95,863.801C1295.91,863.859 1295.87,863.909 1295.84,863.946L1295.72,864.059C1295.69,864.09 1295.66,864.11 1295.64,864.122ZM373.894,845.827C373.908,845.824 373.871,845.815 373.784,845.799L362.588,845.799L362.588,862.779C362.588,863.254 362.418,863.654 362.076,863.974C361.755,864.316 361.355,864.487 360.88,864.487C360.405,864.487 360.005,864.316 359.684,863.974C359.343,863.654 359.172,863.254 359.172,862.779L359.172,825.32C359.172,824.845 359.343,824.445 359.684,824.124C360.005,823.783 360.405,823.612 360.88,823.612L373.868,823.612C377.193,823.612 380.03,824.704 382.384,826.887C384.722,829.054 385.888,831.666 385.888,834.72C385.888,837.662 384.784,840.212 382.584,842.354C380.384,844.483 377.705,845.629 374.551,845.799L373.984,845.799C373.955,845.815 373.924,845.824 373.894,845.827C373.89,845.828 373.881,845.829 373.868,845.829C373.876,845.829 373.885,845.828 373.894,845.827ZM519.797,861.149C516.475,863.374 512.722,864.486 508.547,864.486C502.905,864.486 498.092,862.486 494.105,858.478C490.097,854.49 488.092,849.674 488.092,844.036C488.092,838.394 490.097,833.574 494.105,829.565C498.092,825.578 502.905,823.586 508.547,823.586C513.18,823.586 517.326,824.99 520.992,827.799C521.372,828.107 521.588,828.482 521.647,828.94C521.726,829.415 521.609,829.844 521.305,830.219C521.022,830.599 520.642,830.819 520.168,830.878C519.709,830.932 519.293,830.819 518.913,830.536C515.855,828.178 512.397,827.003 508.547,827.003C503.855,827.003 499.851,828.674 496.526,832.015C493.201,835.34 491.542,839.344 491.542,844.036C491.542,848.728 493.201,852.732 496.526,856.057C499.851,859.378 503.855,861.04 508.547,861.04C512.86,861.04 516.61,859.625 519.797,856.803L519.797,844.719L505.497,844.719C505.022,844.719 504.613,844.557 504.272,844.236C503.93,843.894 503.759,843.486 503.759,843.011C503.759,842.532 503.93,842.136 504.272,841.815C504.613,841.474 505.022,841.303 505.497,841.303L521.505,841.303C521.98,841.303 522.388,841.474 522.73,841.815C523.051,842.136 523.213,842.532 523.213,843.011L523.213,862.778C523.213,863.253 523.051,863.653 522.73,863.974C522.388,864.315 521.98,864.486 521.505,864.486C521.03,864.486 520.622,864.315 520.28,863.974C519.959,863.653 519.797,863.253 519.797,862.778L519.797,861.149C520.671,860.564 521.516,859.901 522.33,859.161C522.672,858.84 522.851,858.44 522.872,857.965C522.892,857.486 522.751,857.082 522.447,856.74C522.122,856.378 521.726,856.19 521.247,856.169C520.772,856.149 520.359,856.303 519.997,856.624C519.93,856.684 519.863,856.744 519.797,856.803L519.797,861.149ZM1011.84,861.149C1008.52,863.374 1004.77,864.486 1000.59,864.486C994.95,864.486 990.138,862.486 986.15,858.478C982.142,854.49 980.138,849.674 980.138,844.036C980.138,838.394 982.142,833.574 986.15,829.565C990.138,825.578 994.95,823.586 1000.59,823.586C1005.23,823.586 1009.37,824.99 1013.04,827.799C1013.42,828.107 1013.63,828.482 1013.69,828.94C1013.77,829.415 1013.65,829.844 1013.35,830.219C1013.07,830.599 1012.69,830.819 1012.21,830.878C1011.75,830.932 1011.34,830.819 1010.96,830.536C1007.9,828.178 1004.44,827.003 1000.59,827.003C995.9,827.003 991.896,828.674 988.571,832.015C985.246,835.34 983.588,839.344 983.588,844.036C983.588,848.728 985.246,852.732 988.571,856.057C991.896,859.378 995.9,861.04 1000.59,861.04C1004.9,861.04 1008.65,859.625 1011.84,856.803L1011.84,844.719L997.542,844.719C997.067,844.719 996.658,844.557 996.317,844.236C995.975,843.894 995.804,843.486 995.804,843.011C995.804,842.532 995.975,842.136 996.317,841.815C996.658,841.474 997.067,841.303 997.542,841.303L1013.55,841.303C1014.02,841.303 1014.43,841.474 1014.77,841.815C1015.1,842.136 1015.26,842.532 1015.26,843.011L1015.26,862.778C1015.26,863.253 1015.1,863.653 1014.77,863.974C1014.43,864.315 1014.02,864.486 1013.55,864.486C1013.08,864.486 1012.67,864.315 1012.33,863.974C1012,863.653 1011.84,863.253 1011.84,862.778L1011.84,861.149C1012.72,860.564 1013.56,859.901 1014.38,859.161C1014.72,858.84 1014.9,858.44 1014.92,857.965C1014.94,857.486 1014.8,857.082 1014.49,856.74C1014.17,856.378 1013.77,856.19 1013.29,856.169C1012.82,856.149 1012.4,856.303 1012.04,856.624C1011.98,856.684 1011.91,856.744 1011.84,856.803L1011.84,861.149ZM1070.55,864.486C1070.07,864.486 1069.67,864.315 1069.35,863.974C1069.01,863.653 1068.84,863.253 1068.84,862.778L1068.84,825.294C1068.84,824.815 1069.01,824.419 1069.35,824.099C1069.69,823.736 1070.09,823.565 1070.55,823.586L1093.16,823.64C1093.64,823.64 1094.04,823.811 1094.36,824.153C1094.7,824.494 1094.87,824.894 1094.87,825.349C1094.87,825.828 1094.7,826.232 1094.36,826.574C1094.04,826.899 1093.64,827.061 1093.16,827.061L1072.26,827.003L1072.26,842.328L1087.89,842.328C1088.37,842.328 1088.77,842.499 1089.09,842.84C1089.43,843.161 1089.6,843.561 1089.6,844.036C1089.6,844.511 1089.43,844.911 1089.09,845.232C1088.77,845.574 1088.37,845.744 1087.89,845.744L1072.26,845.744L1072.26,861.069L1093.16,861.069C1093.64,861.069 1094.04,861.24 1094.36,861.582C1094.7,861.903 1094.87,862.303 1094.87,862.778C1094.87,863.253 1094.7,863.653 1094.36,863.974C1094.04,864.315 1093.64,864.486 1093.16,864.486L1070.55,864.486ZM1227.19,864.486C1226.71,864.486 1226.31,864.315 1225.99,863.974C1225.65,863.653 1225.48,863.253 1225.48,862.778L1225.48,825.294C1225.48,824.815 1225.65,824.419 1225.99,824.099C1226.34,823.736 1226.74,823.565 1227.19,823.586L1249.81,823.64C1250.28,823.64 1250.68,823.811 1251,824.153C1251.34,824.494 1251.51,824.894 1251.51,825.349C1251.51,825.828 1251.34,826.232 1251,826.574C1250.68,826.899 1250.28,827.061 1249.81,827.061L1228.9,827.003L1228.9,842.328L1244.54,842.328C1245.01,842.328 1245.41,842.499 1245.73,842.84C1246.07,843.161 1246.24,843.561 1246.24,844.036C1246.24,844.511 1246.07,844.911 1245.73,845.232C1245.41,845.574 1245.01,845.744 1244.54,845.744L1228.9,845.744L1228.9,861.069L1249.81,861.069C1250.28,861.069 1250.68,861.24 1251,861.582C1251.34,861.903 1251.51,862.303 1251.51,862.778C1251.51,863.253 1251.34,863.653 1251,863.974C1250.68,864.315 1250.28,864.486 1249.81,864.486L1227.19,864.486ZM788.122,864.486C787.647,864.486 787.247,864.315 786.927,863.974C786.585,863.653 786.414,863.253 786.414,862.778L786.414,825.294C786.414,824.815 786.585,824.419 786.927,824.099C787.268,823.736 787.668,823.565 788.122,823.586L810.739,823.64C811.214,823.64 811.614,823.811 811.935,824.153C812.277,824.494 812.447,824.894 812.447,825.349C812.447,825.828 812.277,826.232 811.935,826.574C811.614,826.899 811.214,827.061 810.739,827.061L789.831,827.003L789.831,842.328L805.468,842.328C805.943,842.328 806.343,842.499 806.664,842.84C807.006,843.161 807.177,843.561 807.177,844.036C807.177,844.511 807.006,844.911 806.664,845.232C806.343,845.574 805.943,845.744 805.468,845.744L789.831,845.744L789.831,861.069L810.739,861.069C811.214,861.069 811.614,861.24 811.935,861.582C812.277,861.903 812.447,862.303 812.447,862.778C812.447,863.253 812.277,863.653 811.935,863.974C811.614,864.315 811.214,864.486 810.739,864.486L788.122,864.486ZM847.001,864.486C846.526,864.486 846.126,864.315 845.805,863.974C845.464,863.653 845.293,863.253 845.293,862.778L845.293,825.294C845.293,824.815 845.464,824.419 845.805,824.099C846.147,823.736 846.547,823.565 847.001,823.586L869.618,823.64C870.093,823.64 870.493,823.811 870.814,824.153C871.155,824.494 871.326,824.894 871.326,825.349C871.326,825.828 871.155,826.232 870.814,826.574C870.493,826.899 870.093,827.061 869.618,827.061L848.71,827.003L848.71,842.328L864.347,842.328C864.822,842.328 865.222,842.499 865.543,842.84C865.885,843.161 866.055,843.561 866.055,844.036C866.055,844.511 865.885,844.911 865.543,845.232C865.222,845.574 864.822,845.744 864.347,845.744L848.71,845.744L848.71,861.069L869.618,861.069C870.093,861.069 870.493,861.24 870.814,861.582C871.155,861.903 871.326,862.303 871.326,862.778C871.326,863.253 871.155,863.653 870.814,863.974C870.493,864.315 870.093,864.486 869.618,864.486L847.001,864.486ZM1124.61,864.486C1118.97,864.486 1114.16,862.486 1110.17,858.478C1106.16,854.49 1104.16,849.674 1104.16,844.036C1104.16,838.374 1106.16,833.553 1110.17,829.565C1114.16,825.557 1118.97,823.557 1124.61,823.557C1129.26,823.557 1133.42,824.974 1137.09,827.799C1137.47,828.086 1137.69,828.461 1137.74,828.94C1137.8,829.415 1137.69,829.832 1137.4,830.194C1137.12,830.569 1136.74,830.79 1136.26,830.849C1135.79,830.924 1135.37,830.811 1135.01,830.507C1131.95,828.169 1128.49,827.003 1124.61,827.003C1119.92,827.003 1115.92,828.661 1112.59,831.986C1109.27,835.311 1107.61,839.328 1107.61,844.036C1107.61,848.728 1109.27,852.732 1112.59,856.057C1115.92,859.378 1119.92,861.04 1124.61,861.04C1129.02,861.04 1132.85,859.565 1136.09,856.624C1136.43,856.303 1136.84,856.149 1137.32,856.169C1137.79,856.19 1138.19,856.378 1138.51,856.74C1138.83,857.082 1138.99,857.486 1138.97,857.965C1138.95,858.44 1138.76,858.84 1138.4,859.161C1134.51,862.711 1129.91,864.486 1124.61,864.486ZM742.323,864.486C741.848,864.486 741.448,864.323 741.127,864.002C740.785,863.661 740.614,863.252 740.614,862.777L740.614,825.323C740.614,824.844 740.785,824.44 741.127,824.098C741.448,823.756 741.848,823.586 742.323,823.586L751.806,823.586C757.427,823.586 762.231,825.577 766.218,829.565C770.206,833.552 772.202,838.361 772.202,843.977C772.202,849.598 770.206,854.402 766.218,858.39C762.231,862.377 757.427,864.373 751.806,864.373L742.352,864.486L742.323,864.486ZM1154.81,862.777C1154.81,863.252 1154.64,863.652 1154.3,863.973C1153.98,864.315 1153.58,864.486 1153.1,864.486C1152.63,864.486 1152.23,864.315 1151.9,863.973C1151.56,863.652 1151.39,863.252 1151.39,862.777L1151.39,825.465C1151.39,824.99 1151.56,824.59 1151.9,824.269C1152.23,823.927 1152.63,823.756 1153.1,823.756C1153.58,823.756 1153.98,823.927 1154.3,824.269C1154.64,824.59 1154.81,824.99 1154.81,825.465L1154.81,862.777ZM1189.36,857.386C1189.35,857.381 1189.32,857.364 1189.27,857.336C1189.24,857.302 1189.19,857.261 1189.13,857.223L1188.9,856.994C1188.87,856.94 1188.83,856.89 1188.79,856.852L1188.79,856.823L1188.76,856.794L1173.47,831.531L1173.47,862.777C1173.47,863.252 1173.3,863.661 1172.98,864.002C1172.64,864.323 1172.24,864.486 1171.79,864.486C1171.31,864.486 1170.9,864.323 1170.56,864.002C1170.24,863.661 1170.08,863.252 1170.08,862.777L1170.08,825.436C1170.08,824.581 1170.5,824.04 1171.33,823.811C1172.15,823.586 1172.78,823.84 1173.24,824.581L1190.22,852.636L1207.19,824.581C1207.64,823.84 1208.28,823.586 1209.1,823.811C1209.93,824.04 1210.35,824.581 1210.35,825.436L1210.35,862.777C1210.35,863.252 1210.18,863.661 1209.84,864.002C1209.52,864.323 1209.12,864.486 1208.64,864.486C1208.19,864.486 1207.79,864.323 1207.44,864.002C1207.12,863.661 1206.96,863.252 1206.96,862.777L1206.96,831.531L1191.67,856.794L1191.64,856.823L1191.64,856.852C1191.6,856.89 1191.56,856.94 1191.52,856.994L1191.3,857.223C1191.24,857.261 1191.19,857.302 1191.15,857.336C1191.06,857.394 1191.04,857.402 1191.1,857.365C1191.12,857.344 1191.09,857.356 1191.01,857.394C1190.95,857.431 1190.9,857.461 1190.84,857.481C1190.8,857.498 1190.75,857.515 1190.7,857.536C1190.64,857.556 1190.58,857.565 1190.53,857.565C1190.49,857.586 1190.44,857.594 1190.39,857.594C1190.33,857.615 1190.27,857.623 1190.22,857.623C1190.16,857.623 1190.1,857.615 1190.05,857.594C1189.99,857.594 1189.94,857.586 1189.9,857.565C1189.85,857.565 1189.79,857.556 1189.73,857.536C1189.67,857.515 1189.62,857.498 1189.59,857.481C1189.53,857.461 1189.47,857.431 1189.42,857.394L1189.36,857.394C1189.36,857.391 1189.36,857.388 1189.36,857.386ZM902.858,857.386C902.848,857.381 902.82,857.364 902.775,857.336C902.738,857.302 902.688,857.261 902.634,857.223L902.405,856.994C902.367,856.94 902.33,856.89 902.292,856.852L902.292,856.823L902.263,856.794L886.967,831.531L886.967,862.777C886.967,863.252 886.805,863.661 886.484,864.002C886.142,864.323 885.742,864.486 885.288,864.486C884.809,864.486 884.405,864.323 884.063,864.002C883.742,863.661 883.58,863.252 883.58,862.777L883.58,825.436C883.58,824.581 883.996,824.04 884.83,823.811C885.65,823.586 886.284,823.84 886.738,824.581L903.717,852.636L920.692,824.581C921.146,823.84 921.78,823.586 922.6,823.811C923.434,824.04 923.855,824.581 923.855,825.436L923.855,862.777C923.855,863.252 923.684,863.661 923.338,864.002C923.017,864.323 922.621,864.486 922.142,864.486C921.688,864.486 921.288,864.323 920.946,864.002C920.625,863.661 920.463,863.252 920.463,862.777L920.463,831.531L905.167,856.794L905.138,856.823L905.138,856.852C905.105,856.89 905.063,856.94 905.025,856.994L904.796,857.223C904.742,857.261 904.692,857.302 904.655,857.336C904.563,857.394 904.542,857.402 904.596,857.365C904.617,857.344 904.588,857.356 904.513,857.394C904.455,857.431 904.4,857.461 904.342,857.481C904.305,857.498 904.255,857.515 904.2,857.536C904.142,857.556 904.084,857.565 904.03,857.565C903.992,857.586 903.942,857.594 903.888,857.594C903.83,857.615 903.771,857.623 903.717,857.623C903.659,857.623 903.6,857.615 903.546,857.594C903.488,857.594 903.438,857.586 903.4,857.565C903.346,857.565 903.288,857.556 903.23,857.536C903.175,857.515 903.125,857.498 903.088,857.481C903.03,857.461 902.975,857.431 902.917,857.394L902.859,857.394C902.859,857.391 902.859,857.388 902.858,857.386ZM639.972,857.386C639.961,857.381 639.933,857.364 639.889,857.336C639.851,857.302 639.801,857.261 639.747,857.223L639.518,856.994C639.48,856.94 639.443,856.89 639.405,856.852L639.405,856.823L639.376,856.794L624.08,831.531L624.08,862.777C624.08,863.252 623.918,863.661 623.597,864.002C623.255,864.323 622.855,864.486 622.401,864.486C621.922,864.486 621.518,864.323 621.176,864.002C620.855,863.661 620.693,863.252 620.693,862.777L620.693,825.436C620.693,824.581 621.11,824.04 621.943,823.811C622.764,823.586 623.397,823.84 623.851,824.581L640.83,852.636L657.805,824.581C658.26,823.84 658.893,823.586 659.714,823.811C660.547,824.04 660.968,824.581 660.968,825.436L660.968,862.777C660.968,863.252 660.797,863.661 660.451,864.002C660.13,864.323 659.735,864.486 659.255,864.486C658.801,864.486 658.401,864.323 658.06,864.002C657.739,863.661 657.576,863.252 657.576,862.777L657.576,831.531L642.28,856.794L642.251,856.823L642.251,856.852C642.218,856.89 642.176,856.94 642.139,856.994L641.91,857.223C641.855,857.261 641.805,857.302 641.768,857.336C641.676,857.394 641.655,857.402 641.71,857.365C641.73,857.344 641.701,857.356 641.626,857.394C641.568,857.431 641.514,857.461 641.455,857.481C641.418,857.498 641.368,857.515 641.314,857.536C641.255,857.556 641.197,857.565 641.143,857.565C641.105,857.586 641.055,857.594 641.001,857.594C640.943,857.615 640.885,857.623 640.83,857.623C640.772,857.623 640.714,857.615 640.66,857.594C640.601,857.594 640.551,857.586 640.514,857.565C640.46,857.565 640.401,857.556 640.343,857.536C640.289,857.515 640.239,857.498 640.201,857.481C640.143,857.461 640.089,857.431 640.03,857.394L639.972,857.394C639.972,857.391 639.972,857.388 639.972,857.386ZM1320.73,827.031L1309.48,827.031C1309.01,827.031 1308.6,826.869 1308.26,826.548C1307.94,826.227 1307.77,825.827 1307.77,825.352C1307.77,824.873 1307.94,824.477 1308.26,824.156C1308.6,823.814 1309.01,823.644 1309.48,823.644L1335.37,823.644C1335.85,823.644 1336.25,823.814 1336.57,824.156C1336.91,824.477 1337.08,824.873 1337.08,825.352C1337.08,825.827 1336.91,826.227 1336.57,826.548C1336.25,826.869 1335.85,827.031 1335.37,827.031L1324.12,827.031L1324.12,862.777C1324.12,863.252 1323.96,863.66 1323.64,864.002C1323.29,864.323 1322.89,864.485 1322.41,864.485C1321.96,864.485 1321.56,864.323 1321.21,864.002C1320.89,863.66 1320.73,863.252 1320.73,862.777L1320.73,827.031ZM456.103,864.485C450.462,864.485 445.649,862.494 441.662,858.506C437.674,854.519 435.683,849.702 435.683,844.064C435.683,838.423 437.674,833.61 441.662,829.623C445.649,825.635 450.462,823.644 456.103,823.644C461.745,823.644 466.558,825.635 470.545,829.623C474.533,833.61 476.524,838.423 476.524,844.064C476.524,849.702 474.533,854.519 470.545,858.506C466.558,862.494 461.745,864.485 456.103,864.485ZM1365.6,864.485C1359.95,864.485 1355.14,862.494 1351.15,858.506C1347.17,854.519 1345.18,849.702 1345.18,844.064C1345.18,838.423 1347.17,833.61 1351.15,829.623C1355.14,825.635 1359.95,823.644 1365.6,823.644C1371.24,823.644 1376.05,825.635 1380.04,829.623C1384.03,833.61 1386.02,838.423 1386.02,844.064C1386.02,849.702 1384.03,854.519 1380.04,858.506C1376.05,862.494 1371.24,864.485 1365.6,864.485ZM937.7,864.343C937.262,864.172 936.958,863.868 936.787,863.431C936.596,862.997 936.596,862.556 936.787,862.122L940.746,852.581L940.746,852.551L952.283,824.722C952.321,824.631 952.367,824.526 952.425,824.41L952.537,824.297C952.596,824.218 952.633,824.176 952.654,824.156C952.675,824.135 952.717,824.097 952.796,824.039C952.887,823.964 952.929,823.935 952.908,823.956C953.1,823.822 953.3,823.735 953.508,823.697L953.65,823.697C953.762,823.676 953.829,823.668 953.85,823.668C953.871,823.668 953.925,823.676 954.021,823.697L954.162,823.697C954.392,823.735 954.6,823.822 954.787,823.956L954.904,824.039C954.979,824.118 955.025,824.156 955.046,824.156C955.067,824.176 955.104,824.218 955.158,824.297C955.237,824.389 955.275,824.431 955.275,824.41C955.329,824.526 955.379,824.631 955.417,824.722L966.95,852.551L966.95,852.581L970.912,862.122C971.1,862.556 971.1,862.997 970.912,863.431C970.742,863.868 970.433,864.172 970,864.343C969.792,864.439 969.571,864.485 969.346,864.485C968.583,864.485 968.062,864.135 967.779,863.431L964.246,854.943L943.454,854.943L939.921,863.431C939.637,864.135 939.117,864.485 938.354,864.485L938.012,864.485C938.012,864.485 937.908,864.439 937.7,864.343ZM575.513,864.343C575.076,864.172 574.772,863.868 574.601,863.431C574.409,862.997 574.409,862.556 574.601,862.122L578.559,852.581L578.559,852.551L590.097,824.722C590.134,824.631 590.18,824.526 590.238,824.41L590.351,824.297C590.409,824.218 590.447,824.176 590.468,824.156C590.488,824.135 590.53,824.097 590.609,824.039C590.701,823.964 590.742,823.935 590.722,823.956C590.913,823.822 591.113,823.735 591.322,823.697L591.463,823.697C591.576,823.676 591.642,823.668 591.663,823.668C591.684,823.668 591.738,823.676 591.834,823.697L591.976,823.697C592.205,823.735 592.413,823.822 592.601,823.956L592.718,824.039C592.793,824.118 592.838,824.156 592.859,824.156C592.88,824.176 592.918,824.218 592.972,824.297C593.051,824.389 593.088,824.431 593.088,824.41C593.142,824.526 593.193,824.631 593.23,824.722L604.763,852.551L604.763,852.581L608.726,862.122C608.913,862.556 608.913,862.997 608.726,863.431C608.555,863.868 608.247,864.172 607.813,864.343C607.605,864.439 607.384,864.485 607.159,864.485C606.397,864.485 605.876,864.135 605.593,863.431L602.059,854.943L581.267,854.943L577.734,863.431C577.451,864.135 576.93,864.485 576.168,864.485L575.826,864.485C575.826,864.485 575.722,864.439 575.513,864.343ZM674.809,864.343C674.372,864.172 674.068,863.868 673.897,863.431C673.705,862.997 673.705,862.556 673.897,862.122L677.855,852.581L677.855,852.551L689.392,824.722C689.43,824.631 689.476,824.526 689.534,824.41L689.647,824.297C689.705,824.218 689.742,824.176 689.763,824.156C689.784,824.135 689.826,824.097 689.905,824.039C689.997,823.964 690.038,823.935 690.017,823.956C690.209,823.822 690.409,823.735 690.617,823.697L690.759,823.697C690.872,823.676 690.938,823.668 690.959,823.668C690.98,823.668 691.034,823.676 691.13,823.697L691.272,823.697C691.501,823.735 691.709,823.822 691.897,823.956L692.013,824.039C692.088,824.118 692.134,824.156 692.155,824.156C692.176,824.176 692.213,824.218 692.267,824.297C692.347,824.389 692.384,824.431 692.384,824.41C692.438,824.526 692.488,824.631 692.526,824.722L704.059,852.551L704.059,852.581L708.022,862.122C708.209,862.556 708.209,862.997 708.022,863.431C707.851,863.868 707.543,864.172 707.109,864.343C706.901,864.439 706.68,864.485 706.455,864.485C705.693,864.485 705.172,864.135 704.888,863.431L701.355,854.943L680.563,854.943L677.03,863.431C676.747,864.135 676.226,864.485 675.463,864.485L675.122,864.485C675.122,864.485 675.017,864.439 674.809,864.343ZM1043.94,823.697C1047.23,823.697 1050.04,824.772 1052.38,826.918C1054.69,829.059 1055.85,831.655 1055.85,834.693C1055.85,837.389 1054.9,839.764 1053,841.814C1051.14,843.843 1048.8,845.08 1045.97,845.518L1054.09,862.064C1054.3,862.484 1054.32,862.909 1054.17,863.347C1054.02,863.78 1053.74,864.109 1053.32,864.314C1053.09,864.43 1052.84,864.484 1052.58,864.484C1051.87,864.484 1051.37,864.172 1051.07,863.547L1042.27,845.689L1032.75,845.689L1032.75,862.522C1032.75,862.976 1032.58,863.376 1032.24,863.718C1031.92,864.039 1031.52,864.201 1031.05,864.201C1030.59,864.201 1030.19,864.039 1029.85,863.718C1029.52,863.376 1029.36,862.976 1029.36,862.522L1029.36,825.38C1029.36,824.901 1029.52,824.505 1029.85,824.184C1030.19,823.859 1030.59,823.697 1031.05,823.697L1043.94,823.697ZM413.72,823.697C417.003,823.697 419.816,824.772 422.153,826.918C424.466,829.059 425.628,831.655 425.628,834.693C425.628,837.389 424.678,839.764 422.778,841.814C420.92,843.843 418.57,845.08 415.745,845.518L423.862,862.064C424.07,862.484 424.095,862.909 423.945,863.347C423.795,863.78 423.512,864.109 423.091,864.314C422.866,864.43 422.616,864.484 422.353,864.484C421.649,864.484 421.145,864.172 420.841,863.547L412.041,845.689L402.528,845.689L402.528,862.522C402.528,862.976 402.357,863.376 402.016,863.718C401.695,864.039 401.295,864.201 400.82,864.201C400.362,864.201 399.962,864.039 399.62,863.718C399.299,863.376 399.137,862.976 399.137,862.522L399.137,825.38C399.137,824.901 399.299,824.505 399.62,824.184C399.962,823.859 400.362,823.697 400.82,823.697L413.72,823.697ZM551.895,823.697C555.179,823.697 557.991,824.772 560.329,826.918C562.641,829.059 563.804,831.655 563.804,834.693C563.804,837.389 562.854,839.764 560.954,841.814C559.095,843.843 556.745,845.08 553.92,845.518L562.037,862.064C562.245,862.484 562.27,862.909 562.12,863.347C561.97,863.78 561.687,864.109 561.266,864.314C561.041,864.43 560.791,864.484 560.529,864.484C559.825,864.484 559.32,864.172 559.016,863.547L550.216,845.689L540.704,845.689L540.704,862.522C540.704,862.976 540.533,863.376 540.191,863.718C539.87,864.039 539.47,864.201 538.995,864.201C538.537,864.201 538.137,864.039 537.795,863.718C537.475,863.376 537.312,862.976 537.312,862.522L537.312,825.38C537.312,824.901 537.475,824.505 537.795,824.184C538.137,823.859 538.537,823.697 538.995,823.697L551.895,823.697ZM1295.64,864.122C1295.65,864.115 1295.66,864.11 1295.66,864.11C1295.65,864.109 1295.65,864.111 1295.64,864.117C1295.62,864.138 1295.62,864.141 1295.64,864.122ZM1365.6,827.031C1360.9,827.031 1356.9,828.702 1353.58,832.044C1350.25,835.369 1348.59,839.373 1348.59,844.064C1348.59,848.756 1350.25,852.76 1353.58,856.085C1356.9,859.41 1360.9,861.069 1365.6,861.069C1370.29,861.069 1374.29,859.41 1377.62,856.085C1380.96,852.76 1382.63,848.756 1382.63,844.064C1382.63,839.373 1380.96,835.369 1377.62,832.044C1374.29,828.702 1370.29,827.031 1365.6,827.031ZM456.103,827.031C451.412,827.031 447.408,828.702 444.083,832.044C440.758,835.369 439.099,839.373 439.099,844.064C439.099,848.756 440.758,852.76 444.083,856.085C447.408,859.41 451.412,861.069 456.103,861.069C460.795,861.069 464.799,859.41 468.124,856.085C471.466,852.76 473.137,848.756 473.137,844.064C473.137,839.373 471.466,835.369 468.124,832.044C464.799,828.702 460.795,827.031 456.103,827.031ZM744.031,861.04L751.777,860.927C756.468,860.927 760.473,859.273 763.798,855.969C767.123,852.644 768.781,848.648 768.781,843.977C768.781,839.306 767.123,835.311 763.798,831.986C760.473,828.681 756.477,827.031 751.806,827.031L744.031,827.031L744.031,861.04ZM902.858,857.382C902.856,857.37 902.85,857.365 902.834,857.365C902.845,857.373 902.853,857.379 902.858,857.382L902.858,857.386C902.865,857.389 902.865,857.388 902.858,857.382ZM1189.36,857.382C1189.36,857.37 1189.35,857.365 1189.33,857.365C1189.34,857.373 1189.35,857.379 1189.36,857.382L1189.36,857.386C1189.36,857.389 1189.36,857.388 1189.36,857.382ZM639.971,857.382C639.97,857.37 639.964,857.365 639.947,857.365C639.959,857.373 639.967,857.379 639.971,857.382L639.972,857.386C639.978,857.389 639.978,857.388 639.971,857.382ZM600.663,851.526L591.663,829.822L582.663,851.526L600.663,851.526ZM962.85,851.526L953.85,829.822L944.85,851.526L962.85,851.526ZM699.959,851.526L690.959,829.822L681.959,851.526L699.959,851.526ZM374.097,842.412C376.413,842.354 378.388,841.587 380.022,840.104C381.672,838.604 382.501,836.808 382.501,834.72C382.501,832.595 381.651,830.783 379.963,829.283C378.276,827.779 376.243,827.033 373.868,827.033L362.588,827.033L362.588,842.412L374.097,842.412ZM422.266,834.693C422.266,832.584 421.433,830.789 419.758,829.309C418.087,827.809 416.078,827.059 413.72,827.059L402.528,827.059L402.528,842.297L413.92,842.297C416.237,842.259 418.199,841.501 419.816,840.018C421.449,838.539 422.266,836.764 422.266,834.693ZM1052.49,834.693C1052.49,832.584 1051.66,830.789 1049.98,829.309C1048.31,827.809 1046.3,827.059 1043.94,827.059L1032.75,827.059L1032.75,842.297L1044.14,842.297C1046.46,842.259 1048.42,841.501 1050.04,840.018C1051.67,838.539 1052.49,836.764 1052.49,834.693ZM560.441,834.693C560.441,832.584 559.608,830.789 557.933,829.309C556.262,827.809 554.254,827.059 551.895,827.059L540.704,827.059L540.704,842.297L552.095,842.297C554.412,842.259 556.375,841.501 557.991,840.018C559.625,838.539 560.441,836.764 560.441,834.693Z" style="fill:rgb(141,141,141);fill-rule:nonzero;"/>
    </g>
    <g transform="matrix(1,0,0,1,-358.982,-823.525)">
        <path d="M2424.33,916.102L2424.33,912.801C2424.33,899.496 2428.33,887.684 2436.32,877.363C2444.3,866.721 2454.78,859.567 2467.76,855.901C2480.4,852.58 2492.88,853.246 2505.19,857.901C2517.5,862.892 2527.16,871.046 2534.15,882.359L2779.71,1288.14L3025.28,882.359C3031.93,871.046 3041.41,862.892 3053.72,857.901C3066.03,853.246 3072.19,850.913 3072.19,850.913C3072.19,850.913 3078.68,852.58 3091.66,855.901C3104.3,859.567 3114.62,866.721 3122.61,877.363C3130.59,887.684 3134.59,899.496 3134.59,912.801L3134.59,1512.75C3134.59,1529.06 3128.92,1542.87 3117.61,1554.17C3105.97,1565.83 3091.98,1571.64 3075.69,1571.64C3059.38,1571.64 3045.41,1565.83 3033.76,1554.17C3022.45,1542.87 3016.79,1529.06 3016.79,1512.75L3016.79,1124.43L2830.62,1431.89L2830.62,1432.38L2829.12,1433.88C2828.12,1435.55 2827.45,1436.72 2827.12,1437.38L2825.62,1439.38C2824.29,1440.71 2823.46,1441.55 2823.14,1441.88C2822.8,1442.21 2822.13,1442.87 2821.13,1443.87C2820.14,1444.87 2819.47,1445.54 2819.14,1445.86C2818.47,1446.54 2817.47,1447.36 2816.15,1448.36L2814.65,1449.86C2813.65,1450.53 2812.47,1451.19 2811.16,1451.86C2811.16,1452.18 2810.99,1452.35 2810.65,1452.35L2810.15,1452.86L2809.65,1452.86C2808.98,1453.52 2807.82,1454.19 2806.16,1454.85C2804.83,1455.52 2804.33,1455.85 2804.66,1455.85C2804.33,1455.85 2803.34,1456.18 2801.67,1456.85C2794.01,1460.18 2786.03,1461.68 2777.71,1461.34L2776.72,1461.34C2777.38,1461.34 2776.72,1461.18 2774.72,1460.84C2770.39,1460.51 2766.06,1459.68 2761.74,1458.35C2760.87,1458.17 2760.28,1458.04 2759.95,1457.96C2759.91,1457.93 2759.84,1457.89 2759.74,1457.84C2759.58,1457.84 2759.65,1457.88 2759.95,1457.96C2760.18,1458.12 2759.44,1457.91 2757.75,1457.35C2756.08,1456.68 2754.92,1456.18 2754.25,1455.85C2754.58,1455.85 2754.25,1455.52 2753.25,1454.85C2751.59,1454.19 2750.26,1453.52 2749.26,1452.86L2748.76,1452.86L2748.27,1452.35L2747.77,1451.86C2746.43,1451.19 2745.27,1450.36 2744.27,1449.36C2744.27,1449.7 2743.78,1449.36 2742.78,1448.36C2741.44,1447.36 2740.45,1446.54 2739.78,1445.86C2739.45,1445.54 2738.78,1444.87 2737.78,1443.87C2736.78,1442.87 2736.12,1442.21 2735.79,1441.88C2735.45,1441.21 2734.62,1440.38 2733.29,1439.38C2732.62,1438.38 2732.29,1437.72 2732.29,1437.38C2731.62,1436.72 2730.8,1435.55 2729.8,1433.88L2729.3,1433.39C2729.3,1433.06 2729.12,1432.89 2728.8,1432.89L2728.8,1432.38C2728.8,1432.06 2728.63,1431.89 2728.3,1431.89L2542.62,1124.43L2542.62,1512.75C2542.62,1529.06 2536.8,1542.87 2525.15,1554.17C2513.51,1565.83 2499.53,1571.64 2483.24,1571.64C2466.93,1571.64 2453.12,1565.83 2441.8,1554.17C2430.15,1542.87 2424.33,1529.06 2424.33,1512.75L2424.33,916.891C2424.25,930.336 2419.8,942.445 2411.02,953.233L2194.9,1223.75L2194.9,1512.75C2194.9,1529.06 2189.07,1543.03 2177.43,1554.67C2166.11,1565.99 2152.29,1571.64 2136,1571.64C2119.69,1571.64 2105.89,1565.99 2094.57,1554.67C2082.92,1543.03 2077.1,1529.06 2077.1,1512.75L2077.1,1223.75L1860.99,953.233C1859.82,951.807 1858.74,950.358 1857.73,948.887C1860.86,954.871 1862.94,961.478 1863.97,968.704C1865.97,984.675 1861.98,999.154 1851.99,1012.12C1842.01,1025.11 1829.04,1032.59 1813.06,1034.59C1796.75,1036.92 1782.11,1033.09 1769.13,1023.11C1726.21,990.166 1677.8,973.7 1623.89,973.7C1558.01,973.7 1501.61,996.991 1454.69,1043.57C1408.11,1090.49 1384.81,1146.73 1384.81,1212.28C1384.81,1278.16 1408.11,1334.56 1454.69,1381.48C1501.61,1428.07 1558.01,1451.35 1623.89,1451.35C1685.45,1451.35 1739.01,1430.56 1784.61,1388.97C1785.27,1388.3 1786.43,1387.3 1788.1,1385.98L1788.61,1255.2L1593.45,1255.2C1576.81,1255.2 1562.83,1249.54 1551.52,1238.23C1539.87,1226.58 1534.05,1212.6 1534.05,1196.3C1534.05,1180 1539.87,1166.03 1551.52,1154.38C1562.83,1142.73 1576.81,1136.9 1593.45,1136.9L1848,1136.9C1864.3,1136.9 1878.27,1142.73 1889.93,1154.38C1901.57,1166.03 1907.39,1180 1907.39,1196.3L1905.9,1512.75C1905.9,1529.06 1900.07,1542.87 1888.43,1554.17C1877.11,1565.83 1863.3,1571.65 1847,1571.65L1846.5,1571.65C1833.18,1571.65 1821.21,1567.48 1810.56,1559.17C1800.24,1551.17 1793.43,1541.04 1790.11,1528.72C1737.86,1556 1682.46,1569.65 1623.89,1569.65C1525.4,1569.65 1441.22,1534.71 1371.34,1464.83C1301.46,1394.95 1266.52,1310.78 1266.52,1212.28C1266.52,1113.78 1301.46,1029.77 1371.34,960.216C1441.22,890.341 1525.4,855.4 1623.89,855.4C1704.75,855.4 1777.12,880.033 1841.01,929.275C1846.29,933.336 1850.69,937.923 1854.21,943.035C1848.93,932.962 1847.03,921.891 1848.5,909.808C1850.18,893.841 1857.32,880.858 1869.97,870.874C1882.61,860.562 1897.09,856.237 1913.39,857.904C1929.36,859.895 1942.51,867.22 1952.82,879.862L2136,1109.45L2319.68,879.862C2329.66,867.22 2342.64,859.895 2358.61,857.904C2374.9,856.237 2389.38,860.562 2402.03,870.874C2414.67,880.858 2422,893.841 2423.99,909.808C2424.21,911.938 2424.32,914.036 2424.33,916.102ZM2195.49,915.446C2195.49,947.721 2169.32,973.888 2137.05,973.888C2104.78,973.888 2078.6,947.721 2078.6,915.446C2078.6,883.171 2104.78,857.009 2137.05,857.009C2169.32,857.009 2195.49,883.171 2195.49,915.446Z" style="fill:rgb(244,117,32);fill-rule:nonzero;"/>
    </g>
</svg>
