<?xml version="1.0" encoding="utf-8"?>
<!-- Generator: Adobe Illustrator 16.0.3, SVG Export Plug-In . SVG Version: 6.00 Build 0)  -->
<!DOCTYPE svg PUBLIC "-//W3C//DTD SVG 1.1//EN" "http://www.w3.org/Graphics/SVG/1.1/DTD/svg11.dtd">
<svg version="1.1" id="Warstwa_1" xmlns="http://www.w3.org/2000/svg" xmlns:xlink="http://www.w3.org/1999/xlink" x="0px" y="0px"
	 width="320px" height="65px" viewBox="0 0 320 65" enable-background="new 0 0 320 65" xml:space="preserve">
<g>
	<path d="M80.106,33.042c0.85,0.077,1.39,0.193,1.853,0.31c1.003,0.231,1.119,0.694,1.196,2.276
		c0.077,1.351,0.077,6.368,0.077,8.298c0,3.203,0,6.947-0.116,9.532c-0.116,1.621-0.618,1.776-1.274,1.969
		c-0.579,0.154-1.273,0.231-2.045,0.348c-0.116,0-0.116,0.54,0,0.579c0.887-0.039,2.855,0,3.28,0
		c3.281,0.038,4.362,0.154,6.561,0.154c3.204,0,5.79-0.733,8.144-2.162c2.547-1.543,5.596-4.708,5.596-10.497
		c0-3.551-1.081-6.561-3.512-8.722c-2.045-1.814-4.939-2.702-8.297-2.702c-3.011,0-4.67,0.154-7.217,0.154
		c-1.004,0-3.203-0.077-4.168-0.115C80.106,32.502,80.03,32.966,80.106,33.042L80.106,33.042z M85.703,53.227
		c-0.078-1.235-0.078-5.596-0.078-9.107c0-3.358,0-8.8,0.078-9.727c0.038-0.617,0.309-0.771,0.501-0.849
		c0.386-0.115,1.39-0.192,2.2-0.192c3.358,0,6.021,0.501,7.834,1.775c3.165,2.238,4.361,5.479,4.361,9.378
		c0,4.477-1.235,6.985-3.126,8.761c-1.814,1.698-4.053,2.123-6.136,2.123c-2.355,0-4.053-0.271-4.786-0.695
		C85.935,54.346,85.741,53.806,85.703,53.227L85.703,53.227z M105.065,33.042c0.926,0.116,1.66,0.231,2.084,0.348
		c0.888,0.231,0.849,1.042,0.965,1.969c0.077,1.774,0.077,4.785,0.077,7.68c0,3.203-0.039,9.88-0.116,10.807
		c-0.077,0.887-0.231,1.466-1.197,1.659c-0.463,0.116-1.196,0.232-1.736,0.271c-0.077,0.077-0.116,0.463,0,0.579
		c2.007,0,2.778-0.116,4.669-0.116c1.698,0,3.088,0.116,3.898,0.116c0.077-0.077,0.154-0.464,0.038-0.579
		c-0.732-0.077-1.428-0.193-1.968-0.348c-0.965-0.27-1.081-0.927-1.158-2.122c-0.039-1.274-0.077-5.558-0.077-9.186
		c0-3.358,0.038-7.218,0.115-8.838c0.078-1.197,0.231-1.776,1.081-2.008c0.347-0.076,1.003-0.154,1.582-0.231
		c0.077-0.116,0.039-0.463-0.038-0.578c-0.927,0-2.084,0.115-3.706,0.115c-1.775,0-3.782-0.115-4.477-0.115
		C105.027,32.54,104.949,32.966,105.065,33.042L105.065,33.042z M116.489,50.409c-0.078-0.077-0.54,0-0.617,0.154
		c0.077,1.12,0.463,4.671,0.849,5.211c0.811,0.54,3.01,1.158,5.094,1.158c4.979,0,7.989-3.127,7.989-6.87
		c0-2.972-2.084-4.555-3.744-5.674c-1.119-0.732-2.933-1.659-4.4-2.701c-1.505-1.119-2.663-2.471-2.624-4.709
		c0.039-2.276,1.543-4.322,4.4-4.322c1.273,0,2.161,0.193,2.971,0.656c0.926,0.54,1.351,1.39,1.505,4.053
		c0.077,0.076,0.579,0.076,0.656-0.039c0.154-1.813,0.424-3.628,0.656-4.862c-1.543-0.155-3.01-0.579-5.249-0.579
		c-4.014,0-7.14,2.432-7.14,6.29c0,3.242,2.393,5.249,5.287,7.024c3.397,2.085,5.249,3.513,5.249,6.253
		c0,3.087-2.045,4.554-4.438,4.554c-1.699,0-2.895-0.27-3.859-0.965C117.878,54.269,117.106,52.764,116.489,50.409L116.489,50.409z
		 M147.028,55.774c-0.811-0.077-1.351-0.154-1.891-0.309c-0.849-0.231-1.312-0.425-1.428-2.856
		c-0.077-1.813-0.154-13.083-0.154-18.602c0-0.116,0.077-0.31,0.193-0.348c0.964-0.039,4.477-0.077,6.021,0.038
		c0.772,0.039,1.197,0.386,1.466,1.081c0.309,0.771,0.464,2.122,0.541,3.049c0.038,0.115,0.617,0.154,0.656,0
		c0.154-1.93,0.424-4.516,0.772-5.635c0-0.038-0.116-0.077-0.154-0.077c-1.197,0.424-1.968,0.463-3.281,0.463H135.45
		c-0.964,0-2.316-0.271-2.895-0.579c-0.077-0.038-0.193,0.039-0.193,0.039c-0.077,1.544-0.424,4.245-0.694,5.828
		c0.038,0.115,0.541,0.192,0.617,0.115c0.425-1.235,0.926-2.663,1.428-3.396c0.348-0.578,0.811-0.926,1.389-0.926
		c0.811-0.077,5.017-0.077,5.751-0.039c0.077,0,0.231,0.116,0.231,0.271c0,6.252-0.039,17.638-0.077,18.756
		c-0.078,1.737-0.193,2.587-1.39,2.779c-0.463,0.115-1.312,0.231-2.547,0.348c-0.116,0.115-0.116,0.424,0,0.579
		c1.119,0,3.126-0.116,5.249-0.116c1.312,0,3.512,0.116,4.631,0.116C147.067,56.314,147.105,55.89,147.028,55.774L147.028,55.774z
		 M155.522,33.042c0.656,0.039,1.351,0.116,1.853,0.231c0.965,0.193,1.197,0.734,1.235,1.698c0.077,1.39,0.077,7.449,0.077,9.688
		c0,2.046-0.039,7.564-0.077,8.606c-0.039,1.428-0.27,1.969-1.197,2.2c-0.386,0.115-1.119,0.192-1.891,0.309
		c-0.154,0.038-0.154,0.54,0,0.579c0.579,0,1.93-0.116,4.323-0.116c1.621,0,3.783,0.116,4.284,0.116
		c0.116-0.116,0.155-0.502,0.039-0.579c-0.695-0.116-1.428-0.232-2.007-0.386c-0.695-0.193-1.004-0.464-1.042-2.123
		c-0.078-1.428-0.078-5.442-0.078-7.487c0-0.077,0.078-0.271,0.155-0.271c0.655,0,2.276-0.077,2.933-0.038
		c0.271,0,0.579,0.154,0.888,0.617c1.544,2.084,4.207,6.639,5.673,8.221c0.695,0.811,1.235,1.196,1.776,1.429
		c1.157,0.501,3.859,0.693,5.21,0.617c0.077-0.039,0.115-0.502,0.077-0.579c-1.775-0.154-2.471-0.348-4.323-2.2
		c-1.774-1.775-4.978-6.445-6.483-8.876c-0.038-0.039-0.038-0.116,0.039-0.193c2.161-0.965,4.477-2.779,4.477-6.175
		c0-3.127-2.123-5.828-6.483-5.828c-1.351,0-3.127,0.077-5.674,0.077c-1.042,0-2.817-0.115-3.744-0.115
		C155.483,32.502,155.445,32.966,155.522,33.042L155.522,33.042z M162.624,33.352c4.284,0,6.367,2.083,6.367,5.75
		c0,3.319-1.774,4.67-3.086,5.133c-0.966,0.348-3.436,0.231-4.709,0.077c-0.039,0-0.155-0.115-0.155-0.192
		c0-2.548,0-8.838,0.116-10.15c0-0.154,0.116-0.425,0.193-0.464C161.659,33.39,162.199,33.352,162.624,33.352L162.624,33.352z
		 M179.038,33.042c0.927,0.116,1.659,0.231,2.083,0.348c0.889,0.231,0.85,1.042,0.966,1.969c0.077,1.774,0.077,4.785,0.077,7.68
		c0,3.203-0.039,9.88-0.116,10.807c-0.077,0.887-0.231,1.466-1.196,1.659c-0.463,0.116-1.196,0.232-1.736,0.271
		c-0.077,0.077-0.116,0.463,0,0.579c2.006,0,2.778-0.116,4.67-0.116c1.698,0,3.088,0.116,3.898,0.116
		c0.076-0.077,0.153-0.464,0.038-0.579c-0.733-0.077-1.428-0.193-1.969-0.348c-0.965-0.27-1.08-0.927-1.157-2.122
		c-0.039-1.274-0.077-5.558-0.077-9.186c0-3.358,0.038-7.218,0.115-8.838c0.077-1.197,0.231-1.776,1.081-2.008
		c0.348-0.076,1.003-0.154,1.582-0.231c0.077-0.116,0.039-0.463-0.038-0.578c-0.927,0-2.084,0.115-3.705,0.115
		c-1.775,0-3.782-0.115-4.478-0.115C178.999,32.54,178.922,32.966,179.038,33.042L179.038,33.042z M190.226,33.042
		c0.617,0.039,1.659,0.155,2.2,0.348c0.579,0.193,0.85,0.579,0.926,1.621c0.078,1.351,0.078,3.28,0.078,9.263
		c0,5.249-0.039,7.718-0.116,8.992c-0.077,1.544-0.309,2.007-1.081,2.2c-0.694,0.192-1.543,0.231-2.276,0.309
		c-0.116,0.038-0.116,0.502,0,0.579c2.47-0.116,5.712,0.076,7.449,0.076c1.735,0,3.704-0.076,5.44-0.81
		c2.934-1.196,4.709-3.551,4.709-6.639c0-3.357-2.394-5.249-5.442-5.981c-0.038-0.039-0.038-0.078,0-0.116
		c2.354-1.042,3.859-2.934,3.859-5.172c0-4.67-4.206-5.21-6.367-5.21c-2.972,0-3.396,0.077-5.249,0.077
		c-1.621,0-2.547-0.077-4.13-0.115C190.11,32.502,190.11,33.004,190.226,33.042L190.226,33.042z M197.597,33.352
		c4.015,0,5.828,1.775,5.828,5.171c0,1.544-0.501,2.972-1.736,3.82c-0.501,0.348-1.235,0.579-3.859,0.579
		c-1.196,0-1.621-0.038-1.93-0.076c-0.077,0-0.154-0.155-0.154-0.231c0-3.012,0.077-7.951,0.115-8.453
		c0-0.231,0.116-0.578,0.31-0.656C196.362,33.429,196.902,33.352,197.597,33.352L197.597,33.352z M199.527,55.466
		c-0.811,0-2.315-0.155-3.011-0.618c-0.309-0.231-0.578-0.579-0.617-1.003c-0.154-1.467-0.154-7.487-0.154-9.88
		c0-0.077,0.077-0.116,0.154-0.155c0.115-0.038,0.617-0.077,1.737-0.077c4.322,0,7.255,2.046,7.255,6.176
		C204.892,53.574,203.348,55.466,199.527,55.466L199.527,55.466z M208.959,33.042c0.502,0.077,1.505,0.193,1.93,0.348
		c0.849,0.309,0.849,1.081,0.888,2.085c0.077,1.967-0.039,12.156,0.231,14.434c0.54,4.67,3.551,7.024,8.953,7.024
		c3.783,0,7.835-1.391,8.838-6.484c0.503-2.509,0.464-3.743,0.657-13.971c0.038-2.277,0.309-2.856,1.273-3.126
		c0.386-0.116,0.849-0.193,1.428-0.271c0.077-0.077,0.077-0.502,0-0.579c-0.579,0-1.853,0.077-3.358,0.077
		c-2.237,0-3.512-0.077-4.052-0.077c-0.077,0.077-0.115,0.502-0.038,0.579c0.772,0.116,1.08,0.116,1.621,0.231
		c0.926,0.192,1.62,0.463,1.659,2.895c0.154,4.207,0.038,8.723-0.077,11.656c-0.231,6.174-3.242,7.603-6.946,7.603
		c-2.316,0-4.748-0.772-6.099-2.432c-0.888-1.043-1.351-2.354-1.543-5.211c-0.078-2.045-0.116-9.107,0-12.272
		c0.076-1.621,0.27-1.93,0.925-2.161c0.464-0.154,0.85-0.192,1.622-0.348c0.077-0.076,0.077-0.502,0-0.578
		c-0.812,0-2.084,0.115-3.744,0.115c-1.698,0-3.666-0.115-4.168-0.115C208.882,32.54,208.844,32.966,208.959,33.042L208.959,33.042z
		 M250.228,55.774c-0.811-0.077-1.351-0.154-1.892-0.309c-0.849-0.231-1.312-0.425-1.428-2.856
		c-0.077-1.813-0.154-13.083-0.154-18.602c0-0.116,0.077-0.31,0.192-0.348c0.966-0.039,4.478-0.077,6.021,0.038
		c0.772,0.039,1.197,0.386,1.467,1.081c0.31,0.771,0.463,2.122,0.541,3.049c0.038,0.115,0.617,0.154,0.656,0
		c0.154-1.93,0.424-4.516,0.771-5.635c0-0.038-0.116-0.077-0.154-0.077c-1.196,0.424-1.969,0.463-3.281,0.463h-14.317
		c-0.965,0-2.315-0.271-2.895-0.579c-0.077-0.038-0.193,0.039-0.193,0.039c-0.077,1.544-0.425,4.245-0.695,5.828
		c0.039,0.115,0.541,0.192,0.618,0.115c0.425-1.235,0.926-2.663,1.428-3.396c0.348-0.578,0.811-0.926,1.39-0.926
		c0.811-0.077,5.017-0.077,5.751-0.039c0.077,0,0.23,0.116,0.23,0.271c0,6.252-0.038,17.638-0.077,18.756
		c-0.076,1.737-0.192,2.587-1.389,2.779c-0.463,0.115-1.313,0.231-2.547,0.348c-0.116,0.115-0.116,0.424,0,0.579
		c1.119,0,3.125-0.116,5.249-0.116c1.312,0,3.512,0.116,4.631,0.116C250.266,56.314,250.305,55.89,250.228,55.774L250.228,55.774z
		 M258.76,33.042c0.926,0.116,1.66,0.231,2.084,0.348c0.888,0.231,0.85,1.042,0.966,1.969c0.077,1.774,0.077,4.785,0.077,7.68
		c0,3.203-0.039,9.88-0.116,10.807c-0.077,0.887-0.231,1.466-1.196,1.659c-0.464,0.116-1.196,0.232-1.737,0.271
		c-0.077,0.077-0.115,0.463,0,0.579c2.007,0,2.779-0.116,4.671-0.116c1.698,0,3.086,0.116,3.897,0.116
		c0.077-0.077,0.154-0.464,0.038-0.579c-0.733-0.077-1.427-0.193-1.968-0.348c-0.965-0.27-1.081-0.927-1.157-2.122
		c-0.039-1.274-0.078-5.558-0.078-9.186c0-3.358,0.039-7.218,0.116-8.838c0.077-1.197,0.231-1.776,1.081-2.008
		c0.347-0.076,1.003-0.154,1.582-0.231c0.077-0.116,0.038-0.463-0.039-0.578c-0.926,0-2.084,0.115-3.704,0.115
		c-1.776,0-3.782-0.115-4.478-0.115C258.722,32.54,258.645,32.966,258.76,33.042L258.76,33.042z M280.65,56.933
		c3.782,0,7.681-1.775,9.88-5.134c1.506-2.2,2.277-4.593,2.277-7.834c0-6.291-3.859-12.08-11.463-12.08
		c-3.743,0-8.066,2.007-10.188,5.133c-1.313,2.006-2.123,4.399-2.123,7.14c0,3.319,1.042,6.639,3.281,9.147
		C274.244,55.427,277.332,56.933,280.65,56.933L280.65,56.933z M282.155,55.697c-2.122,0-3.859-0.54-5.248-1.467
		c-3.59-2.354-5.095-6.946-5.095-10.845c0-4.015,1.313-7.72,4.361-9.456c1.08-0.578,2.354-0.926,3.859-0.926
		c2.238,0,4.052,0.656,5.519,1.736c3.28,2.277,4.708,6.445,4.708,10.459c0,3.706-0.926,6.908-3.551,9.031
		C285.591,55.157,283.969,55.697,282.155,55.697L282.155,55.697z M293.969,33.042c1.582,0.193,2.47,0.271,3.28,1.197
		c0.502,0.54,0.694,1.273,0.694,1.62c-0.076,8.105-0.231,15.207-0.308,16.981c-0.078,2.007-0.695,2.432-1.583,2.663
		c-0.502,0.154-0.85,0.193-1.582,0.271c-0.078,0.038-0.078,0.502,0,0.579c0.771,0,2.007-0.116,3.743-0.116
		c1.969,0,3.628,0.116,4.361,0.116c0.077-0.039,0.154-0.541,0.038-0.579c-0.694-0.077-1.505-0.154-2.045-0.348
		c-0.811-0.231-1.39-0.655-1.467-2.586c-0.077-2.238-0.077-12.466-0.039-16.286c0-0.038,0.116-0.077,0.155-0.038
		c1.736,2.122,13.971,17.02,15.9,19.913c0.387-0.038,1.582-0.038,1.93,0c-0.038-1.195-0.077-3.357-0.077-5.094
		c0.077-5.171,0.039-13.161,0.231-16.017c0.038-0.888,0.271-1.698,1.235-1.968c0.501-0.154,0.811-0.193,1.505-0.31
		c0.077-0.076,0.077-0.502,0-0.578c-0.425,0-2.432,0.115-3.513,0.115c-1.813,0-3.434-0.115-4.399-0.115
		c-0.076,0.076-0.154,0.502-0.038,0.578c0.888,0.077,1.698,0.193,2.354,0.387c1.08,0.347,1.234,1.042,1.312,2.084
		c0.232,2.701,0.154,11.964,0.154,17.174l-0.115,0.077c-1.39-1.582-10.536-12.658-15.014-18.139
		c-1.042-1.273-1.39-1.853-1.505-2.085c-0.347,0.039-0.849,0.039-1.621,0.039c-1.196,0-2.972-0.115-3.512-0.115
		C293.969,32.54,293.931,32.966,293.969,33.042L293.969,33.042z"/>
	<path d="M0,64.126h63.252V0.874H0V64.126L0,64.126z M61.621,62.496H1.63V2.504h59.991V62.496L61.621,62.496z"/>
	<path d="M59.627,4.499H3.625v56.003h56.002V4.499L59.627,4.499z M59.083,59.958H4.167V5.042h54.916V59.958L59.083,59.958z"/>
	<path d="M10.293,35.974c2.461,2.021,5.647,2.403,8.845,2.235c-0.303,4.307-0.751,10.028-0.99,11.916
		c-0.295,1.959-0.555,2.477-1.7,2.772c-0.481,0.111-1.072,0.147-1.664,0.259c-0.111,0.111-0.111,0.739,0,0.851
		c0.666,0,2.366-0.111,4.289-0.111c1.848,0,3.364,0.111,4.103,0.111c0.147-0.074,0.221-0.739,0.074-0.851
		c-1.035-0.147-1.589-0.221-2.144-0.369c-1.072-0.296-1.22-1.072-1.22-2.514c0.029-2.159,0.304-8.146,0.547-12.193
		c0.502-0.055,1.002-0.111,1.486-0.208c2.096,4.828,5.986,13.647,6.729,16.171c0.148,0.038,0.776,0.038,0.924-0.036
		c1.22-3.476,7.319-16.265,8.391-18.594c0.074-0.037,0.148-0.037,0.185,0c0.037,3.216,0.185,13.271,0.148,15.673
		c-0.037,0.888-0.222,1.479-0.998,1.701c-0.443,0.11-0.998,0.222-1.848,0.369c-0.148,0.111-0.111,0.739,0,0.851
		c0.924-0.037,2.662-0.111,4.658-0.111c2.181,0,3.881,0.111,4.731,0.111c0.111-0.185,0.111-0.703,0.037-0.851
		c-0.85-0.111-1.442-0.185-1.959-0.296c-1.072-0.259-1.293-0.85-1.405-2.106c-0.185-2.625-0.417-14.563-0.407-16.856
		c0.003-0.736,0.19-1.337,1.052-1.732c0.404-0.186,1.08-0.337,1.984-0.336c0.63,0.001,1.502,0.107,2.338,0.455l0.398-0.623
		c-2.047-0.607-3.775-0.633-6.127-0.22c-5.734,0.858-9.725,5.689-14.911,7.714c-0.332-0.717-0.66-1.432-0.981-2.132
		c3.728-1.385,7.039-3.747,10.425-5.842c4.017-2.677,10.372-3.674,14.426-2.318c1.894,0.634,4.005,2.333,4.079,4.527
		c0.186,1.709-1.334,3.006-2.673,3.899c-2.417,1.241-5.307,1.662-8.22,1.509v0.695c0.726,0.078,1.464,0.055,2.21,0.046
		c3.049-0.223,6.163-0.868,8.174-3.121c1.155-1.293,1.544-2.875,0.931-4.456c-0.931-2.491-3.888-3.905-5.84-4.09
		c-4.61-0.854-9.296,0.372-13.275,2.082c-1.855,0.824-3.625,1.828-5.382,2.862c0.001-0.104,0.001-0.231-0.004-0.39
		c-0.073-1.627-0.073-6.561-0.073-8.815c0-0.074,0.073-0.223,0.185-0.223c0.776-0.036,2.017,0,3.311,0.111
		c0.591,0.037,1.035,0.37,1.257,1.109c0.148,0.443,0.296,0.813,0.407,1.626c0.185,0.074,0.813,0.037,0.924-0.11
		c0-0.925-0.074-2.07-0.074-3.327c0-1.331,0.148-2.81,0.259-3.586c-0.148-0.11-0.813-0.185-0.961-0.074
		c-0.148,0.592-0.295,1.184-0.481,1.627c-0.221,0.592-0.555,1.072-1.664,1.109c-1.146,0.073-1.684,0.073-2.978,0.073
		c-0.074,0-0.185-0.073-0.185-0.185c0-2.514,0.037-6.728,0.073-8.576c0-0.258,0.186-0.628,0.444-0.665
		c0.74-0.074,4.879-0.074,6.136,0c0.813,0.037,1.331,0.443,1.626,1.183c0.185,0.555,0.407,1.368,0.518,2.625
		c0.148,0.147,0.887,0.073,0.961-0.037c0.11-2.106,0.295-4.251,0.555-5.139c0-0.073-0.038-0.222-0.148-0.222
		c-0.666,0.148-1.849,0.222-3.438,0.222h-8.391c-2.034,0-3.696-0.11-4.399-0.11c-0.111,0.074-0.148,0.739-0.037,0.813
		c0.961,0.148,1.552,0.223,2.033,0.37c0.813,0.333,0.887,0.739,0.96,1.922c0.075,1.146,0.075,4.066,0.075,8.096
		c0,4.251-0.037,9.535-0.075,10.829c-0.069,1.249-0.888,2.135-2.292,2.877c-3.715,1.969-9.288,2.348-12.905,0.074
		c-0.896-0.563-1.925-1.894-1.831-3.23c0.13-1.872,2.242-3.508,3.951-4.14l0.187-0.073c3.79-1.276,7.873,0.045,11.146,1.752v-0.664
		c-2.427-1.405-5.268-2.314-8.184-2.238c-2.864-0.063-6.751,1.491-7.736,4.501C8.36,33.474,9.177,34.972,10.293,35.974
		L10.293,35.974z M37.295,33.965c-1.833,4.042-6.318,13.306-6.913,14.423c-0.037,0.074-0.11,0.074-0.147,0.037
		c-0.364-0.68-2.291-4.724-4.219-8.886C30,38.185,33.533,35.813,37.295,33.965L37.295,33.965z"/>
	<path d="M78.877,9.144c0.327,0.039,0.558,0.077,0.845,0.154c0.539,0.134,0.749,0.308,1.114,1.46
		c0.615,1.806,2.248,7.896,2.767,10.047c0.096-0.038,0.653-0.038,0.73-0.019c0.384-1.441,2.517-7.492,3.151-9.414l0.077-0.038
		c0.999,2.785,2.728,7.818,3.151,9.49c0.096-0.038,0.615-0.02,0.691-0.02c0.442-1.806,2.363-8.05,3.093-10.162
		c0.269-0.769,0.48-1.076,0.884-1.269c0.173-0.076,0.48-0.153,0.96-0.23c0.058-0.038,0.058-0.25,0-0.288
		c-0.365,0.02-0.807,0.058-1.94,0.058c-0.711,0-1.614-0.058-1.999-0.058c-0.057,0.038-0.038,0.231,0,0.288
		c0.5,0.058,0.73,0.115,1.019,0.192c0.48,0.135,0.461,0.614,0.327,1.287c-0.346,1.71-1.844,6.59-2.305,8.011
		c-0.02,0-0.039,0.02-0.058,0.02c-0.653-1.69-2.843-7.935-3.15-9.355c-0.096,0.019-0.557,0.019-0.691,0
		c-0.327,1.402-2.498,7.53-3.112,9.298c-0.02,0.02-0.058,0.02-0.058,0.038c-0.691-2.382-1.902-6.589-2.325-8.395
		c-0.153-0.597-0.058-0.827,0.211-0.923c0.192-0.076,0.289-0.076,0.749-0.173c0.039-0.038,0.039-0.25,0-0.288
		c-0.403,0.02-0.902,0.038-1.844,0.058c-0.826,0-1.479-0.077-2.248-0.077C78.839,8.875,78.839,9.105,78.877,9.144L78.877,9.144z
		 M101.882,21.035c1.883,0,3.824-0.883,4.919-2.555c0.75-1.096,1.133-2.286,1.133-3.899c0-3.132-1.92-6.014-5.706-6.014
		c-1.863,0-4.015,0.999-5.071,2.555c-0.653,1-1.057,2.19-1.057,3.555c0,1.652,0.519,3.305,1.633,4.553
		C98.694,20.286,100.231,21.035,101.882,21.035L101.882,21.035z M102.632,20.421c-1.057,0-1.92-0.269-2.612-0.729
		c-1.787-1.173-2.536-3.458-2.536-5.399c0-1.997,0.653-3.842,2.171-4.706c0.538-0.288,1.171-0.461,1.92-0.461
		c1.115,0,2.017,0.326,2.748,0.864c1.633,1.133,2.343,3.208,2.343,5.206c0,1.845-0.461,3.438-1.767,4.496
		C104.342,20.152,103.535,20.421,102.632,20.421L102.632,20.421z M109.058,9.144c0.327,0.02,0.672,0.058,0.922,0.115
		c0.48,0.097,0.595,0.365,0.615,0.846c0.039,0.691,0.039,3.707,0.039,4.822c0,1.018-0.02,3.765-0.039,4.284
		c-0.02,0.711-0.134,0.979-0.596,1.095c-0.192,0.058-0.558,0.096-0.941,0.153c-0.077,0.02-0.077,0.269,0,0.289
		c0.288,0,0.961-0.059,2.152-0.059c0.807,0,1.883,0.059,2.132,0.059c0.058-0.059,0.077-0.25,0.019-0.289
		c-0.346-0.058-0.71-0.115-0.999-0.191c-0.346-0.097-0.5-0.231-0.519-1.057c-0.038-0.712-0.038-2.709-0.038-3.728
		c0-0.038,0.038-0.134,0.077-0.134c0.327,0,1.134-0.039,1.46-0.02c0.134,0,0.288,0.076,0.441,0.307
		c0.769,1.038,2.094,3.305,2.825,4.093c0.346,0.403,0.615,0.595,0.883,0.711c0.576,0.249,1.921,0.346,2.594,0.308
		c0.038-0.021,0.057-0.25,0.038-0.289c-0.883-0.077-1.229-0.173-2.151-1.095c-0.884-0.884-2.479-3.208-3.228-4.419
		c-0.019-0.019-0.019-0.058,0.02-0.096c1.075-0.48,2.229-1.383,2.229-3.074c0-1.556-1.057-2.9-3.228-2.9
		c-0.672,0-1.556,0.038-2.824,0.038c-0.519,0-1.402-0.058-1.864-0.058C109.039,8.875,109.02,9.105,109.058,9.144L109.058,9.144z
		 M112.593,9.298c2.133,0,3.17,1.037,3.17,2.862c0,1.651-0.884,2.324-1.538,2.555c-0.48,0.173-1.71,0.115-2.344,0.039
		c-0.019,0-0.077-0.058-0.077-0.097c0-1.268,0-4.399,0.058-5.052c0-0.077,0.058-0.212,0.096-0.231
		C112.112,9.316,112.381,9.298,112.593,9.298L112.593,9.298z M120.934,9.144c0.192,0.02,0.711,0.077,0.942,0.135
		c0.595,0.134,0.633,0.327,0.672,1.287c0.019,0.403,0.019,1.536,0.019,3.535c0,4.457-0.019,4.821-0.058,5.359
		c-0.038,0.635-0.25,0.769-0.653,0.864c-0.269,0.058-0.595,0.077-1.018,0.135c-0.039,0.058-0.039,0.25,0,0.289
		c0.307,0,1.46-0.059,2.229-0.059c0.826,0,4.515,0.077,5.494,0.077c0.327,0,0.5-0.115,0.596-0.23
		c0.269-0.519,0.711-2.074,0.864-2.824c-0.019-0.076-0.23-0.135-0.288-0.097c-0.366,0.884-0.826,1.653-1.095,1.979
		c-0.327,0.403-0.653,0.596-1.057,0.614c-0.788,0.059-3.093,0.059-3.478-0.134c-0.135-0.058-0.288-0.25-0.308-0.558
		c-0.038-1.019-0.057-3.266-0.038-4.937c0.019-1.576,0.019-3.823,0.038-4.458c0.02-0.48,0.039-0.729,0.5-0.845
		c0.25-0.058,0.422-0.077,0.807-0.135c0.077-0.019,0.057-0.269,0-0.288c-0.327,0-1.057,0.058-1.998,0.058
		c-1.057,0-1.729-0.058-2.133-0.058C120.915,8.875,120.896,9.125,120.934,9.144L120.934,9.144z M130.945,9.144
		c0.423,0.039,0.692,0.097,0.922,0.154c0.5,0.114,0.558,0.345,0.596,1.133c0.038,0.673,0.038,3.17,0.038,4.131
		c0,1.595,0,3.458-0.057,4.745c-0.058,0.807-0.308,0.884-0.634,0.979c-0.288,0.077-0.634,0.115-1.018,0.173
		c-0.058,0-0.058,0.269,0,0.289c0.442-0.021,1.421,0,1.633,0c1.633,0.019,2.171,0.076,3.266,0.076c1.594,0,2.881-0.365,4.054-1.076
		c1.268-0.769,2.786-2.344,2.786-5.225c0-1.769-0.539-3.267-1.749-4.342c-1.018-0.903-2.459-1.346-4.13-1.346
		c-1.499,0-2.324,0.077-3.592,0.077c-0.5,0-1.595-0.038-2.075-0.058C130.945,8.875,130.907,9.105,130.945,9.144L130.945,9.144z
		 M133.731,19.191c-0.039-0.615-0.039-2.785-0.039-4.534c0-1.671,0-4.38,0.039-4.842c0.019-0.307,0.154-0.384,0.25-0.422
		c0.192-0.058,0.691-0.096,1.095-0.096c1.671,0,2.997,0.249,3.9,0.884c1.575,1.114,2.17,2.728,2.17,4.668
		c0,2.229-0.615,3.477-1.556,4.361c-0.903,0.845-2.017,1.057-3.055,1.057c-1.172,0-2.017-0.135-2.382-0.346
		C133.846,19.748,133.75,19.479,133.731,19.191L133.731,19.191z"/>
</g>
</svg>
